# xmcd
#
# Track frame offsets: 
#        150
#        17700
#        31857
#        46350
#        57877
#        70015
#        87795
#        104105
#        122512
#        146730
#        161035
#
# Disc length: 2347 seconds
#
# Revision: 2
# Processed by: cddbd v1.5.2PL0 Copyright (c) Steve Scherf et al.
# Submitted via: ExactAudioCopy v1.0b3
#
DISCID=9109290b
DTITLE=Blaskapelle Makos - Abendkonzert
DYEAR=1993
DGENRE=Blasmusik
TTITLE0=Tisnovanka
TTITLE1=Predehra
TTITLE2=Konzert Mazurka
TTITLE3=Rosamunde
TTITLE4=Junger Wein
TTITLE5=Abendidylle
TTITLE6=Trompetenpolka
TTITLE7=Brünner Polka
TTITLE8=Bassmenü
TTITLE9=Mutti`s Ländler
TTITLE10=Makos Galopp
EXTD=
EXTT0=
EXTT1=
EXTT2=
EXTT3=
EXTT4=
EXTT5=
EXTT6=
EXTT7=
EXTT8=
EXTT9=
EXTT10=
PLAYORDER=
